<?xml version="1.0" encoding="utf-8"?>
<!-- Generator: Adobe Illustrator 18.1.1, SVG Export Plug-In . SVG Version: 6.00 Build 0)  -->
<!DOCTYPE svg PUBLIC "-//W3C//DTD SVG 1.1//EN" "http://www.w3.org/Graphics/SVG/1.1/DTD/svg11.dtd">
<svg version="1.1" id="Layer_1" xmlns="http://www.w3.org/2000/svg" xmlns:xlink="http://www.w3.org/1999/xlink" x="0px" y="0px"
	 viewBox="0 0 32 32" enable-background="new 0 0 32 32" xml:space="preserve">
<path opacity="0.5" d="M23,8c0.3,0,0.7,0,1,0.1V2H8L2,8v22h22v-4.1c-0.3,0-0.7,0.1-1,0.1s-0.7,0-1-0.1V28H4V10h6V4h12v4.1
	C22.3,8,22.7,8,23,8z"/>
<g>
	<path fill="#4DAE89" d="M23,8c-5,0-9,4-9,9c0,5,4,9,9,9s9-4,9-9C32,12,28,8,23,8z M23,24c-3.9,0-7-3.1-7-7c0-3.9,3.1-7,7-7
		s7,3.1,7,7C30,20.9,26.9,24,23,24z"/>
	<polygon fill="#4DAE89" points="24,16 24,12 22,12 22,16 18,16 18,18 22,18 22,22 24,22 24,18 28,18 28,16 	"/>
</g>
</svg>
